<svg id="Bold" xmlns="http://www.w3.org/2000/svg" width="24" height="24" viewBox="0 0 24 24">
  <defs>
    <style>
      .cls-1 {
        fill: #005587;
      }

      .cls-2 {
        fill: #ffb81c;
      }
    </style>
  </defs>
  <path class="cls-1" d="M5,3.5H9A.5.5,0,0,0,9.5,3V1.5A1.5,1.5,0,0,0,8,0H6A1.5,1.5,0,0,0,4.5,1.5V3A.5.5,0,0,0,5,3.5Z"/>
  <path class="cls-1" d="M1.162,17.25H7.519a.251.251,0,0,0,.228-.352A2,2,0,0,1,9.031,14.15l1.7-.478a.531.531,0,0,0,.383-.444.5.5,0,0,0-.5-.564H.775a.5.5,0,0,0-.364.157A1.4379,1.4379,0,0,0,0,13.848v2.241A1.161,1.161,0,0,0,1.161,17.25Z"/>
  <path class="cls-1" d="M8.607,23.544a3.2491,3.2491,0,0,1-1.073-4.089.5.5,0,0,0-.456-.7H.79a.5.5,0,0,0-.359.152A1.449,1.449,0,0,0,0,19.95V21.5A2.5,2.5,0,0,0,2.5,24H8.465a.25.25,0,0,0,.142-.456Z"/>
  <path class="cls-1" d="M.758,11.164H11.822a.5.5,0,0,0,.432-.248c.977-1.671,1.161-2.075,1.423-2.411a.5.5,0,0,0,.078-.471A4.5061,4.5061,0,0,0,9.5,5h-5A4.5,4.5,0,0,0,0,9.5V10a1.4311,1.4311,0,0,0,.387,1A.5.5,0,0,0,.758,11.164Z"/>
  <path class="cls-2" d="M23.735,19.5l-2.081-3.626a1.0013,1.0013,0,1,0-1.735,1l1.652,2.877a.5.5,0,0,1-.434.749h-1.26a.5.5,0,0,1-.5-.5v-.5a.5.5,0,0,0-.854-.354l-2,2a.5.5,0,0,0,0,.707l2,2a.5.5,0,0,0,.854-.353V23a.5.5,0,0,1,.5-.5H22a2,2,0,0,0,1.734-3Z"/>
  <path class="cls-2" d="M14.764,20.5H11.323a.5.5,0,0,1-.433-.75l.781-1.354a.5.5,0,0,1,.678-.187l.466.262a.5.5,0,0,0,.726-.572l-.765-2.722A.5.5,0,0,0,12.16,14.83l-.0011,0-2.723.77a.5.5,0,0,0-.109.918l.406.228a.5.5,0,0,1,.19.681l-.0023.004L8.725,19.5a2,2,0,0,0,1.733,3h4.306a1,1,0,0,0,0-2Z"/>
  <path class="cls-2" d="M16.675,11.254l.616,1.073a.5.5,0,0,1-.179.678l-.467.278a.5.5,0,0,0,.131.914l2.741.7a.5.5,0,0,0,.608-.361l.7-2.741a.5.5,0,0,0-.739-.553l-.393.233a.5.5,0,0,1-.6863-.17L19,11.293,17.978,9.505A2,2,0,0,0,16.244,8.5h0a2.0071,2.0071,0,0,0-1.733,1l-2.028,3.517a1,1,0,1,0,1.733,1h0l1.594-2.764a.5.5,0,0,1,.866,0Z"/>
</svg>
