<?xml version="1.0" encoding="utf-8"?>
<!-- Generator: Adobe Illustrator 24.1.2, SVG Export Plug-In . SVG Version: 6.00 Build 0)  -->
<svg version="1.1" id="waste-basket-15" xmlns="http://www.w3.org/2000/svg" xmlns:xlink="http://www.w3.org/1999/xlink" x="0px"
	 y="0px" viewBox="0 0 15 15" style="enable-background:new 0 0 15 15;" xml:space="preserve">
<style type="text/css">
	.st0{fill:#F12C4C;}
</style>
<path class="st0" d="M12.4,5.6l-1.3,8c0,0.2-0.2,0.4-0.5,0.4H4.4c-0.2,0-0.4-0.2-0.5-0.4l-1.3-8C2.5,5.3,2.7,5.1,3,5
	c0,0,0.1,0,0.1,0h8.8C12.2,5,12.4,5.2,12.4,5.6C12.4,5.5,12.4,5.6,12.4,5.6z M13,3.5C13,3.8,12.8,4,12.5,4h-10C2.2,4,2,3.8,2,3.5
	S2.2,3,2.5,3H5V1.5C5,1.2,5.2,1,5.5,1h4C9.8,1,10,1.2,10,1.5V3h2.5C12.8,3,13,3.2,13,3.5z M9,3V2H6v1H9z"/>
</svg>
